<svg width="149" height="37" viewBox="0 0 149 37" fill="none" xmlns="http://www.w3.org/2000/svg">
<path d="M0.381897 12.9119C0.62723 12.8693 0.888564 12.8319 1.1659 12.7999C1.4539 12.7573 1.73656 12.7253 2.0139 12.7039C2.3019 12.6826 2.57923 12.6666 2.8459 12.6559C3.11256 12.6453 3.3579 12.6399 3.5819 12.6399C4.10456 12.6399 4.61656 12.6879 5.1179 12.7839C5.6299 12.8799 6.08323 13.0453 6.4779 13.2799C6.88323 13.5146 7.20323 13.8399 7.4379 14.2559C7.68323 14.6613 7.8059 15.1733 7.8059 15.7919C7.8059 16.7093 7.59256 17.4559 7.1659 18.0319C6.73923 18.6079 6.16856 19.0079 5.4539 19.2319L6.2379 19.7279L8.7979 23.9999H6.2699L3.7259 19.6159L2.5739 19.4079V23.9999H0.381897V12.9119ZM3.7419 14.5919C3.5179 14.5919 3.2939 14.5973 3.0699 14.6079C2.85656 14.6186 2.69123 14.6399 2.5739 14.6719V17.9199H3.5019C4.1099 17.9199 4.59523 17.7813 4.9579 17.5039C5.32056 17.2266 5.5019 16.7679 5.5019 16.1279C5.5019 15.6479 5.35256 15.2746 5.0539 15.0079C4.75523 14.7306 4.3179 14.5919 3.7419 14.5919Z" fill="white"/>
<path d="M10.0069 12.7999H16.6469V14.7519H12.1989V17.3599H16.2469V19.3119H12.1989V22.0479H16.7269V23.9999H10.0069V12.7999Z" fill="white"/>
<path d="M18.3663 12.7999C18.5903 12.7679 18.8409 12.7413 19.1183 12.7199C19.4063 12.6986 19.6996 12.6826 19.9983 12.6719C20.2969 12.6613 20.5849 12.6559 20.8623 12.6559C21.1503 12.6453 21.4063 12.6399 21.6303 12.6399C22.6223 12.6399 23.4703 12.7786 24.1743 13.0559C24.8783 13.3333 25.4489 13.7226 25.8863 14.2239C26.3236 14.7253 26.6436 15.3226 26.8463 16.0159C27.0489 16.7093 27.1503 17.4719 27.1503 18.3039C27.1503 19.0613 27.0543 19.7919 26.8623 20.4959C26.6703 21.1999 26.3503 21.8239 25.9023 22.3679C25.4543 22.9119 24.8623 23.3493 24.1263 23.6799C23.4009 24.0106 22.4996 24.1759 21.4223 24.1759C21.2516 24.1759 21.0223 24.1706 20.7343 24.1599C20.4569 24.1493 20.1636 24.1333 19.8543 24.1119C19.5556 24.1013 19.2676 24.0853 18.9903 24.0639C18.7129 24.0533 18.5049 24.0373 18.3663 24.0159V12.7999ZM21.8063 14.5919C21.5716 14.5919 21.3316 14.5973 21.0863 14.6079C20.8516 14.6186 20.6756 14.6346 20.5583 14.6559V22.1599C20.6009 22.1706 20.6703 22.1813 20.7663 22.1919C20.8729 22.1919 20.9849 22.1973 21.1023 22.2079C21.2196 22.2079 21.3316 22.2133 21.4383 22.2239C21.5449 22.2239 21.6249 22.2239 21.6783 22.2239C22.2969 22.2239 22.8089 22.1173 23.2143 21.9039C23.6303 21.6799 23.9556 21.3866 24.1903 21.0239C24.4356 20.6613 24.6063 20.2453 24.7023 19.7759C24.7983 19.2959 24.8463 18.8053 24.8463 18.3039C24.8463 17.8666 24.8036 17.4293 24.7183 16.9919C24.6329 16.5439 24.4729 16.1439 24.2383 15.7919C24.0143 15.4399 23.7049 15.1519 23.3103 14.9279C22.9156 14.7039 22.4143 14.5919 21.8063 14.5919Z" fill="white"/>
<path d="M33.5576 20.9919C33.5576 20.6506 33.4296 20.3733 33.1736 20.1599C32.9283 19.9466 32.6136 19.7546 32.2296 19.5839C31.8563 19.4026 31.4456 19.2213 30.9976 19.0399C30.5603 18.8479 30.1496 18.6186 29.7656 18.3519C29.3923 18.0746 29.0776 17.7333 28.8216 17.3279C28.5763 16.9226 28.4536 16.4053 28.4536 15.7759C28.4536 15.2319 28.5443 14.7626 28.7256 14.3679C28.907 13.9626 29.163 13.6266 29.4936 13.3599C29.835 13.0933 30.235 12.8959 30.6936 12.7679C31.1523 12.6399 31.6643 12.5759 32.2296 12.5759C32.8803 12.5759 33.4936 12.6346 34.0696 12.7519C34.6456 12.8586 35.1203 13.0186 35.4936 13.2319L34.8056 15.0719C34.571 14.9226 34.219 14.7893 33.7496 14.6719C33.2803 14.5439 32.7736 14.4799 32.2296 14.4799C31.7176 14.4799 31.323 14.5813 31.0456 14.7839C30.779 14.9866 30.6456 15.2586 30.6456 15.5999C30.6456 15.9199 30.7683 16.1866 31.0136 16.3999C31.2696 16.6133 31.5843 16.8106 31.9576 16.9919C32.3416 17.1733 32.7523 17.3599 33.1896 17.5519C33.6376 17.7439 34.0483 17.9786 34.4216 18.2559C34.8056 18.5226 35.1203 18.8586 35.3656 19.2639C35.6216 19.6586 35.7496 20.1546 35.7496 20.7519C35.7496 21.3493 35.6483 21.8666 35.4456 22.3039C35.2536 22.7306 34.9763 23.0879 34.6136 23.3759C34.2616 23.6639 33.8296 23.8773 33.3176 24.0159C32.8163 24.1546 32.2616 24.2239 31.6536 24.2239C30.8536 24.2239 30.1496 24.1493 29.5416 23.9999C28.9336 23.8506 28.4856 23.7013 28.1976 23.5519L28.9016 21.6799C29.019 21.7439 29.1683 21.8133 29.3496 21.8879C29.5416 21.9626 29.755 22.0319 29.9896 22.0959C30.2243 22.1599 30.4696 22.2133 30.7256 22.2559C30.9923 22.2986 31.2643 22.3199 31.5416 22.3199C32.1923 22.3199 32.6883 22.2133 33.0296 21.9999C33.3816 21.7759 33.5576 21.4399 33.5576 20.9919Z" fill="white"/>
<path d="M39.978 19.2159H39.402V23.9999H37.21V12.7999H39.402V17.7599L39.914 17.5359L43.002 12.7999H45.498L42.234 17.5039L41.37 18.1119L42.266 18.7359L45.994 23.9999H43.29L39.978 19.2159Z" fill="white"/>
<path d="M52.1675 21.5199H48.7275L47.8795 23.9999H45.6875L49.7195 12.7199H51.3355L55.3675 23.9999H53.0635L52.1675 21.5199ZM49.2875 19.7599H51.6875L50.8555 17.2639L50.5195 15.5039H50.4395L50.1035 17.2799L49.2875 19.7599Z" fill="white"/>
<path d="M63.037 14.7519H59.773V23.9999H57.581V14.7519H54.301V12.7999H63.037V14.7519Z" fill="white"/>
<path d="M64.1788 12.7999H70.8188V14.7519H66.3708V17.3599H70.4188V19.3119H66.3708V22.0479H70.8988V23.9999H64.1788V12.7999Z" fill="white"/>
<path fill-rule="evenodd" clip-rule="evenodd" d="M130.33 2.34325e-06C140.641 2.34325e-06 149 8.28273 149 18.5C149 28.7173 140.641 37 130.33 37L91.6607 37C91.0059 37 90.7754 36.1398 91.3439 35.8179L93.4769 34.6102C100.47 30.6505 99.4085 20.3501 91.752 17.8728L91.2338 17.7052C83.8775 15.325 82.746 5.48123 89.3738 1.52276C91.0419 0.526488 92.9527 -8.43604e-08 94.9003 0L130.33 2.34325e-06ZM126.863 14.5357C126.863 15.4115 126.146 16.1214 125.263 16.1214C124.379 16.1214 123.662 15.4115 123.662 14.5357C123.662 13.6599 124.379 12.95 125.263 12.95C126.146 12.95 126.863 13.6599 126.863 14.5357ZM125.263 24.5786C126.146 24.5786 126.863 23.8686 126.863 22.9929C126.863 22.1171 126.146 21.4071 125.263 21.4071C124.379 21.4071 123.662 22.1171 123.662 22.9929C123.662 23.8686 124.379 24.5786 125.263 24.5786ZM118.328 22.9929C118.328 23.8686 117.612 24.5786 116.728 24.5786C115.844 24.5786 115.127 23.8686 115.127 22.9929C115.127 22.1171 115.844 21.4071 116.728 21.4071C117.612 21.4071 118.328 22.1171 118.328 22.9929ZM116.728 16.1214C117.612 16.1214 118.328 15.4115 118.328 14.5357C118.328 13.6599 117.612 12.95 116.728 12.95C115.844 12.95 115.127 13.6599 115.127 14.5357C115.127 15.4115 115.844 16.1214 116.728 16.1214Z" fill="white"/>
</svg>
