<svg width="149" height="37" viewBox="0 0 149 37" fill="none" xmlns="http://www.w3.org/2000/svg">
<path d="M0.381874 12.912C0.627207 12.8693 0.888541 12.832 1.16587 12.8C1.45387 12.7573 1.73654 12.7253 2.01387 12.704C2.30187 12.6827 2.57921 12.6667 2.84587 12.656C3.11254 12.6453 3.35787 12.64 3.58187 12.64C4.10454 12.64 4.61654 12.688 5.11787 12.784C5.62987 12.88 6.08321 13.0453 6.47787 13.28C6.88321 13.5147 7.20321 13.84 7.43787 14.256C7.68321 14.6613 7.80587 15.1733 7.80587 15.792C7.80587 16.7093 7.59254 17.456 7.16587 18.032C6.73921 18.608 6.16854 19.008 5.45387 19.232L6.23787 19.728L8.79787 24H6.26987L3.72587 19.616L2.57387 19.408V24H0.381874V12.912ZM3.74187 14.592C3.51787 14.592 3.29387 14.5973 3.06987 14.608C2.85654 14.6187 2.69121 14.64 2.57387 14.672V17.92H3.50187C4.10987 17.92 4.59521 17.7813 4.95787 17.504C5.32054 17.2267 5.50187 16.768 5.50187 16.128C5.50187 15.648 5.35254 15.2747 5.05387 15.008C4.75521 14.7307 4.31787 14.592 3.74187 14.592Z" fill="black"/>
<path d="M10.0069 12.8H16.6469V14.752H12.1989V17.36H16.2469V19.312H12.1989V22.048H16.7269V24H10.0069V12.8Z" fill="black"/>
<path d="M18.3662 12.8C18.5902 12.768 18.8409 12.7413 19.1182 12.72C19.4062 12.6987 19.6996 12.6827 19.9982 12.672C20.2969 12.6613 20.5849 12.656 20.8622 12.656C21.1502 12.6453 21.4062 12.64 21.6302 12.64C22.6222 12.64 23.4702 12.7787 24.1742 13.056C24.8782 13.3333 25.4489 13.7227 25.8862 14.224C26.3236 14.7253 26.6436 15.3227 26.8462 16.016C27.0489 16.7093 27.1502 17.472 27.1502 18.304C27.1502 19.0613 27.0543 19.792 26.8623 20.496C26.6703 21.2 26.3502 21.824 25.9022 22.368C25.4542 22.912 24.8623 23.3493 24.1263 23.68C23.4009 24.0107 22.4996 24.176 21.4222 24.176C21.2516 24.176 21.0222 24.1707 20.7342 24.16C20.4569 24.1493 20.1636 24.1333 19.8542 24.112C19.5556 24.1013 19.2676 24.0853 18.9902 24.064C18.7129 24.0533 18.5049 24.0373 18.3662 24.016V12.8ZM21.8062 14.592C21.5716 14.592 21.3316 14.5973 21.0863 14.608C20.8516 14.6187 20.6756 14.6347 20.5583 14.656V22.16C20.6009 22.1707 20.6703 22.1813 20.7663 22.192C20.8729 22.192 20.9849 22.1973 21.1022 22.208C21.2196 22.208 21.3316 22.2133 21.4382 22.224C21.5449 22.224 21.6249 22.224 21.6782 22.224C22.2969 22.224 22.8089 22.1173 23.2142 21.904C23.6302 21.68 23.9556 21.3867 24.1903 21.024C24.4356 20.6613 24.6063 20.2453 24.7023 19.776C24.7983 19.296 24.8462 18.8053 24.8462 18.304C24.8462 17.8667 24.8036 17.4293 24.7183 16.992C24.6329 16.544 24.4729 16.144 24.2383 15.792C24.0143 15.44 23.7049 15.152 23.3102 14.928C22.9156 14.704 22.4142 14.592 21.8062 14.592Z" fill="black"/>
<path d="M33.5576 20.992C33.5576 20.6507 33.4296 20.3733 33.1736 20.16C32.9283 19.9467 32.6136 19.7547 32.2296 19.584C31.8563 19.4027 31.4456 19.2213 30.9976 19.04C30.5603 18.848 30.1496 18.6187 29.7656 18.352C29.3923 18.0747 29.0776 17.7333 28.8216 17.328C28.5763 16.9227 28.4536 16.4053 28.4536 15.776C28.4536 15.232 28.5443 14.7627 28.7256 14.368C28.907 13.9627 29.163 13.6267 29.4936 13.36C29.835 13.0933 30.235 12.896 30.6936 12.768C31.1523 12.64 31.6643 12.576 32.2296 12.576C32.8803 12.576 33.4936 12.6347 34.0696 12.752C34.6456 12.8587 35.1203 13.0187 35.4936 13.232L34.8056 15.072C34.571 14.9227 34.219 14.7893 33.7496 14.672C33.2803 14.544 32.7736 14.48 32.2296 14.48C31.7176 14.48 31.323 14.5813 31.0456 14.784C30.779 14.9867 30.6456 15.2587 30.6456 15.6C30.6456 15.92 30.7683 16.1867 31.0136 16.4C31.2696 16.6133 31.5843 16.8107 31.9576 16.992C32.3416 17.1733 32.7523 17.36 33.1896 17.552C33.6376 17.744 34.0483 17.9787 34.4216 18.256C34.8056 18.5227 35.1203 18.8587 35.3656 19.264C35.6216 19.6587 35.7496 20.1547 35.7496 20.752C35.7496 21.3493 35.6483 21.8667 35.4456 22.304C35.2536 22.7307 34.9763 23.088 34.6136 23.376C34.2616 23.664 33.8296 23.8773 33.3176 24.016C32.8163 24.1547 32.2616 24.224 31.6536 24.224C30.8536 24.224 30.1496 24.1493 29.5416 24C28.9336 23.8507 28.4856 23.7013 28.1976 23.552L28.9016 21.68C29.019 21.744 29.1683 21.8133 29.3496 21.888C29.5416 21.9627 29.755 22.032 29.9896 22.096C30.2243 22.16 30.4696 22.2133 30.7256 22.256C30.9923 22.2987 31.2643 22.32 31.5416 22.32C32.1923 22.32 32.6883 22.2133 33.0296 22C33.3816 21.776 33.5576 21.44 33.5576 20.992Z" fill="black"/>
<path d="M39.978 19.216H39.402V24H37.21V12.8H39.402V17.76L39.914 17.536L43.002 12.8H45.498L42.234 17.504L41.37 18.112L42.266 18.736L45.994 24H43.29L39.978 19.216Z" fill="black"/>
<path d="M52.1675 21.52H48.7275L47.8795 24H45.6875L49.7195 12.72H51.3355L55.3675 24H53.0635L52.1675 21.52ZM49.2875 19.76H51.6875L50.8555 17.264L50.5195 15.504H50.4395L50.1035 17.28L49.2875 19.76Z" fill="black"/>
<path d="M63.037 14.752H59.773V24H57.581V14.752H54.301V12.8H63.037V14.752Z" fill="black"/>
<path d="M64.1787 12.8H70.8187V14.752H66.3708V17.36H70.4187V19.312H66.3708V22.048H70.8988V24H64.1787V12.8Z" fill="black"/>
<path fill-rule="evenodd" clip-rule="evenodd" d="M130.33 2.34325e-06C140.641 2.34325e-06 149 8.28273 149 18.5C149 28.7173 140.641 37 130.33 37L91.6606 37C91.0059 37 90.7753 36.1398 91.3438 35.8179L93.4768 34.6102C100.47 30.6505 99.4084 20.3501 91.752 17.8728L91.2338 17.7052C83.8774 15.325 82.746 5.48123 89.3738 1.52276C91.0418 0.526488 92.9526 -8.43604e-08 94.9003 0L130.33 2.34325e-06ZM126.863 14.5357C126.863 15.4115 126.146 16.1214 125.262 16.1214C124.379 16.1214 123.662 15.4115 123.662 14.5357C123.662 13.6599 124.379 12.95 125.262 12.95C126.146 12.95 126.863 13.6599 126.863 14.5357ZM125.262 24.5786C126.146 24.5786 126.863 23.8686 126.863 22.9929C126.863 22.1171 126.146 21.4071 125.262 21.4071C124.379 21.4071 123.662 22.1171 123.662 22.9929C123.662 23.8686 124.379 24.5786 125.262 24.5786ZM118.328 22.9929C118.328 23.8686 117.611 24.5786 116.728 24.5786C115.844 24.5786 115.127 23.8686 115.127 22.9929C115.127 22.1171 115.844 21.4071 116.728 21.4071C117.611 21.4071 118.328 22.1171 118.328 22.9929ZM116.728 16.1214C117.611 16.1214 118.328 15.4115 118.328 14.5357C118.328 13.6599 117.611 12.95 116.728 12.95C115.844 12.95 115.127 13.6599 115.127 14.5357C115.127 15.4115 115.844 16.1214 116.728 16.1214Z" fill="black"/>
</svg>
