<svg width="15" height="14" viewBox="0 0 15 14" fill="none" xmlns="http://www.w3.org/2000/svg">
<path d="M7.13446 11.4167L3.67612 13.5C3.52335 13.5972 3.36362 13.6389 3.19696 13.625C3.03029 13.6111 2.88446 13.5556 2.75946 13.4583C2.63446 13.3611 2.53724 13.2397 2.46779 13.0942C2.39835 12.9481 2.38446 12.7847 2.42612 12.6042L3.34279 8.66667L0.280291 6.02083C0.141403 5.89583 0.0547359 5.75333 0.0202914 5.59333C-0.0147086 5.43389 -0.00443085 5.27778 0.0511247 5.125C0.10668 4.97222 0.190014 4.84722 0.301125 4.75C0.412236 4.65278 0.565013 4.59028 0.759458 4.5625L4.80112 4.20833L6.36362 0.5C6.43307 0.333334 6.54085 0.208333 6.68696 0.125C6.83251 0.0416667 6.98168 0 7.13446 0C7.28724 0 7.43668 0.0416667 7.58279 0.125C7.72835 0.208333 7.83585 0.333334 7.90529 0.5L9.46779 4.20833L13.5095 4.5625C13.7039 4.59028 13.8567 4.65278 13.9678 4.75C14.0789 4.84722 14.1622 4.97222 14.2178 5.125C14.2733 5.27778 14.2839 5.43389 14.2495 5.59333C14.2145 5.75333 14.1275 5.89583 13.9886 6.02083L10.9261 8.66667L11.8428 12.6042C11.8845 12.7847 11.8706 12.9481 11.8011 13.0942C11.7317 13.2397 11.6345 13.3611 11.5095 13.4583C11.3845 13.5556 11.2386 13.6111 11.072 13.625C10.9053 13.6389 10.7456 13.5972 10.5928 13.5L7.13446 11.4167Z" fill="#FF2936"/>
</svg>
